<svg width="177" height="46" viewBox="0 0 177 46" fill="none" xmlns="http://www.w3.org/2000/svg">
<path d="M1.5625 37.7083V34.5833H3.51562V22.8646H0.78125V19.7396H3.51562C3.51562 17.2656 4.35221 15.3451 6.02539 13.9779C7.70508 12.6107 10.2539 11.9271 13.6719 11.9271C14.6029 11.9271 15.3906 11.9434 16.0352 11.9759C16.6862 12.0085 17.2656 12.0638 17.7734 12.1419C18.2812 12.2201 18.7044 12.3307 19.043 12.474C19.388 12.6107 19.681 12.7767 19.9219 12.972C20.1628 13.1673 20.3776 13.4082 20.5664 13.6947C20.918 14.222 21.0938 14.8047 21.0938 15.4427C21.0938 16.3086 20.7878 17.0475 20.1758 17.6595C19.5703 18.265 18.8346 18.5677 17.9688 18.5677C17.1029 18.5677 16.3639 18.265 15.752 17.6595C15.1465 17.0475 14.8438 16.3086 14.8438 15.4427C14.8438 15.4297 14.8438 15.4167 14.8438 15.4036C14.4076 15.1693 13.8867 15.0521 13.2812 15.0521C12.9948 15.0521 12.6693 15.1139 12.3047 15.2376C11.9401 15.3548 11.5625 15.5469 11.1719 15.8138C10.7812 16.0742 10.4232 16.3835 10.0977 16.7415C9.77214 17.0931 9.50521 17.5326 9.29688 18.0599C9.08854 18.5872 8.98438 19.1471 8.98438 19.7396H21.4844V34.5833H23.4375V37.7083H14.0625V34.5833H16.0156V22.8646H8.98438V34.5833H11.7188V37.7083H1.5625ZM37.8906 19.349C38.8021 19.349 39.5996 19.4727 40.2832 19.7201C40.9668 19.9674 41.5267 20.3092 41.9629 20.7454C42.3991 21.1751 42.7507 21.7253 43.0176 22.3958C43.291 23.0599 43.4798 23.776 43.584 24.5443C43.6947 25.306 43.75 26.1784 43.75 27.1615V34.5833H45.7031V37.7083H36.3281V34.5833H38.2812V26.7708C38.2812 25.7422 38.1868 24.9414 37.998 24.3685C37.8158 23.7956 37.5488 23.4017 37.1973 23.1868C36.8522 22.972 36.3802 22.8646 35.7812 22.8646C35.2344 22.8646 34.6745 23.0957 34.1016 23.5579C33.5286 24.0202 32.985 24.6647 32.4707 25.4915L32.4219 34.5833H34.375V37.7083H25V34.5833H26.9531V22.8646H25V19.7396H31.0645L32.4316 22.3861C32.6725 21.9499 32.9492 21.5592 33.2617 21.2142C33.5807 20.8626 33.9583 20.5436 34.3945 20.2572C34.8372 19.9642 35.3548 19.7396 35.9473 19.5833C36.5397 19.4271 37.1875 19.349 37.8906 19.349ZM51.5625 15.8333H53.5156V19.7396H58.9844V22.8646H53.5156V33.0208C53.5156 33.4635 53.6393 33.8346 53.8867 34.1341C54.1406 34.4336 54.5378 34.5833 55.0781 34.5833C55.6836 34.5833 56.1979 34.3848 56.6211 33.9876C57.0443 33.584 57.3112 33.0013 57.4219 32.2396L59.7656 32.6302C59.668 33.3919 59.4792 34.0983 59.1992 34.7493C58.9258 35.3939 58.5677 35.9701 58.125 36.4779C57.6823 36.9792 57.1322 37.3763 56.4746 37.6693C55.8236 37.9557 55.0977 38.099 54.2969 38.099C52.3503 38.099 50.8203 37.6465 49.707 36.7415C48.6003 35.8301 48.0469 34.5898 48.0469 33.0208V22.8646H46.0938V19.7396H46.4844C47.487 19.7396 48.3724 19.4531 49.1406 18.8802C49.9089 18.3073 50.7161 17.2917 51.5625 15.8333ZM61.3281 19.7396H67.3926L68.623 22.1126C69.7754 20.2702 71.4062 19.349 73.5156 19.349C74.9284 19.349 76.0482 19.7852 76.875 20.6576C77.7083 21.5234 78.125 22.6497 78.125 24.0365C78.125 24.9023 77.819 25.6413 77.207 26.2533C76.6016 26.8587 75.8659 27.1615 75 27.1615C74.1341 27.1615 73.3952 26.8587 72.7832 26.2533C72.1777 25.6413 71.875 24.9023 71.875 24.0365C71.875 23.6849 71.9303 23.3464 72.041 23.0208C71.8652 22.9167 71.6797 22.8646 71.4844 22.8646C71.0482 22.8646 70.5957 23.151 70.127 23.724C69.6647 24.2904 69.2188 25.14 68.7891 26.2728L68.75 34.5833H73.0469V37.7083H61.3281V34.5833H63.2812V22.8646H61.3281V19.7396ZM95.7031 25.9408V34.5833H97.6562V37.7083H91.5723L90.7031 35.6771C90.0391 36.6276 89.2676 37.2786 88.3887 37.6302C87.5163 37.9818 86.2956 38.1576 84.7266 38.1576C83.9128 38.1576 83.1543 38.0143 82.4512 37.7279C81.7546 37.4479 81.1589 37.0638 80.6641 36.5755C80.1758 36.0872 79.7917 35.5013 79.5117 34.8177C79.2383 34.1341 79.1016 33.4017 79.1016 32.6204C79.1016 31.2728 79.6289 30.1563 80.6836 29.2708C81.7383 28.3789 83.0859 27.9329 84.7266 27.9329C86.0482 27.9329 87.1419 28.0599 88.0078 28.3138C88.8737 28.5612 89.6159 28.9583 90.2344 29.5052V25.3646C90.2344 24.7786 90.153 24.2904 89.9902 23.8997C89.834 23.5026 89.5964 23.1999 89.2773 22.9915C88.9583 22.7767 88.6003 22.627 88.2031 22.5423C87.806 22.4577 87.3307 22.4154 86.7773 22.4154C86.3346 22.4154 85.9342 22.5098 85.5762 22.6986C85.778 23.1217 85.8789 23.5677 85.8789 24.0365C85.8789 24.9023 85.5729 25.6413 84.9609 26.2533C84.3555 26.8587 83.6198 27.1615 82.7539 27.1615C81.888 27.1615 81.1491 26.8587 80.5371 26.2533C79.9316 25.6413 79.6289 24.9023 79.6289 24.0365C79.6289 23.5938 79.7135 23.1771 79.8828 22.7865C80.0586 22.3958 80.2995 22.054 80.6055 21.7611C80.8659 21.4876 81.1361 21.2435 81.416 21.0286C81.696 20.8073 82.0475 20.5892 82.4707 20.3743C82.9004 20.153 83.3659 19.9707 83.8672 19.8275C84.3685 19.6842 84.9674 19.5703 85.6641 19.4857C86.3672 19.3945 87.1354 19.349 87.9688 19.349C89.0495 19.349 90.0651 19.5085 91.0156 19.8275C91.9661 20.1465 92.7865 20.5892 93.4766 21.1556C94.1667 21.722 94.7103 22.4186 95.1074 23.2454C95.5046 24.0723 95.7031 24.9707 95.7031 25.9408ZM90.2344 33.3724V32.0247C89.8307 31.6406 89.375 31.3184 88.8672 31.0579C88.3659 30.791 87.9004 30.6576 87.4707 30.6576C86.5462 30.6576 85.8952 30.8138 85.5176 31.1263C85.14 31.4323 84.9512 31.9303 84.9512 32.6204C84.9512 33.4473 85.1139 34.056 85.4395 34.4466C85.765 34.8372 86.3704 35.0326 87.2559 35.0326C87.7572 35.0326 88.278 34.873 88.8184 34.554C89.3652 34.2285 89.8372 33.8346 90.2344 33.3724ZM111.641 23.1673C110.898 22.7051 109.954 22.474 108.809 22.474C108.346 22.474 107.917 22.5391 107.52 22.6693C107.122 22.793 106.742 23.0078 106.377 23.3138C106.019 23.6198 105.713 24.0072 105.459 24.4759C105.205 24.9447 105.003 25.5404 104.854 26.263C104.704 26.9857 104.629 27.806 104.629 28.724C104.629 29.6419 104.71 30.459 104.873 31.1751C105.036 31.8913 105.251 32.4772 105.518 32.9329C105.791 33.3887 106.117 33.763 106.494 34.056C106.878 34.349 107.272 34.5573 107.676 34.681C108.079 34.7982 108.516 34.8568 108.984 34.8568C110.358 34.8568 111.429 34.5931 112.197 34.0658C112.972 33.5319 113.59 32.7116 114.053 31.6048L116.65 32.5033C116.416 33.1348 116.117 33.7305 115.752 34.2904C115.394 34.8438 114.961 35.3548 114.453 35.8236C113.945 36.2923 113.379 36.696 112.754 37.0345C112.135 37.3665 111.436 37.627 110.654 37.8158C109.873 38.0046 109.049 38.099 108.184 38.099C106.901 38.099 105.687 37.8743 104.541 37.4251C103.402 36.9759 102.409 36.3509 101.562 35.5501C100.723 34.7428 100.055 33.75 99.5605 32.5716C99.0723 31.3932 98.8281 30.1107 98.8281 28.724C98.8281 27.6107 98.9844 26.5625 99.2969 25.5794C99.6094 24.5964 100.049 23.7272 100.615 22.972C101.188 22.2168 101.859 21.5658 102.627 21.0189C103.395 20.472 104.248 20.0586 105.186 19.7786C106.123 19.4922 107.106 19.349 108.135 19.349C108.949 19.349 109.714 19.4271 110.43 19.5833C111.146 19.7331 111.784 19.9414 112.344 20.2083C112.91 20.4688 113.438 20.7943 113.926 21.1849C114.414 21.5755 114.84 21.9922 115.205 22.4349C115.576 22.8711 115.921 23.3626 116.24 23.9095C116.572 24.4238 116.738 24.987 116.738 25.599C116.738 26.4648 116.432 27.2038 115.82 27.8158C115.215 28.4212 114.479 28.724 113.613 28.724C112.747 28.724 112.008 28.4212 111.396 27.8158C110.791 27.2038 110.488 26.4648 110.488 25.599C110.488 25.1172 110.589 24.6647 110.791 24.2415C110.999 23.8184 111.283 23.4603 111.641 23.1673ZM128.672 22.8646V19.7396H138.047V22.8646H135.488L131.611 27.1224L136.836 34.5833H138.438V37.7083H129.062V34.5833H130.312L125.938 28.3333L130.918 22.8646H128.672ZM117.734 13.4896H125.156V34.5833H127.109V37.7083H117.734V34.5833H119.688V16.6146H117.734V13.4896Z" fill="black"/>
<path d="M153.592 25.0276C155.862 25.1702 157.748 26.5192 159.136 28.2465C160.298 29.6886 161.691 31.7998 161.154 33.7629C160.649 35.6109 158.713 35.896 157.096 35.4573C154.965 34.8321 153.125 33.4721 151.903 31.6188C151.903 31.5914 151.903 31.564 151.941 31.5859C153.171 32.8914 154.704 33.8728 156.405 34.4429C157.403 34.7609 158.472 34.9638 159.344 34.2839C160.402 33.4558 160.079 32.1891 159.53 31.0869C158.077 28.1478 154.469 24.8247 150.987 26.7604C147.779 28.5481 148.854 33.5436 150.335 36.0824C151.98 38.9229 154.579 40.4693 157.463 41.884C157.688 41.9937 157.589 42.4324 157.332 42.3775C153.131 41.8676 149.567 38.0675 148.399 34.1522C147.231 30.237 148.531 24.7041 153.592 25.0276Z" fill="black" stroke="black" stroke-width="1.67568" stroke-miterlimit="10"/>
<path d="M156.125 41.3251C160.035 42.8221 164.186 43.8969 168.189 41.9831C170.019 41.0783 171.584 39.7147 172.73 38.0253C173.877 36.3358 174.566 34.3781 174.731 32.343C174.862 30.3964 174.38 28.1043 172.757 26.8595C170.563 25.1486 167.416 26.5579 165.628 28.2633C163.983 29.8316 163.073 32.354 164.356 34.4487C165.82 36.8286 168.485 36.0225 169.686 33.9662C169.733 33.8889 169.803 33.8289 169.887 33.7953C169.971 33.7616 170.064 33.7561 170.151 33.7796C170.238 33.8031 170.315 33.8544 170.371 33.9256C170.426 33.9968 170.457 34.0842 170.459 34.1746C170.382 35.7703 168.863 36.7628 167.372 36.9163C166.603 36.9984 165.826 36.8568 165.136 36.5086C164.445 36.1604 163.87 35.6203 163.479 34.9532C161.164 31.1805 164.4 26.9692 167.937 25.5544C172.241 23.8326 175.493 26.9308 175.8 31.186C176.107 35.4412 173.733 39.7623 170.245 42.1531C166.209 44.8949 159.985 44.5604 155.549 41.9228C155.703 41.6898 155.898 41.4871 156.125 41.3251Z" fill="black" stroke="black" stroke-width="1.67568" stroke-miterlimit="10"/>
<path d="M168.962 31.9923C169.289 32.0036 169.608 32.092 169.894 32.2502C170.18 32.4084 170.424 32.6319 170.607 32.9025C171.018 33.5825 170.684 34.6902 169.982 35.5017C169.697 35.8307 169.214 34.8876 169.401 34.5202C169.675 33.9718 169.949 33.0616 168.852 32.4145C168.812 32.3881 168.781 32.3497 168.764 32.3048C168.746 32.2599 168.744 32.2107 168.756 32.1641C168.768 32.1175 168.794 32.0759 168.831 32.045C168.868 32.0142 168.914 31.9958 168.962 31.9923Z" fill="black" stroke="black" stroke-width="1.67568" stroke-miterlimit="10"/>
<path d="M169.165 31.9977C169.664 32.0561 170.17 31.9863 170.635 31.7948C170.816 31.7301 170.976 31.6173 171.097 31.4685C171.219 31.3197 171.298 31.1406 171.326 30.9503C171.335 30.9176 171.354 30.888 171.378 30.8644C171.403 30.8408 171.434 30.8241 171.467 30.8158C171.5 30.8075 171.535 30.8079 171.568 30.8171C171.601 30.8263 171.631 30.8438 171.655 30.8681C172.066 31.23 171.764 31.9648 171.468 32.3541C171.04 32.9025 170.163 33.2973 169.543 32.9025C169.225 32.7215 168.82 31.9593 169.165 31.9977Z" fill="black" stroke="black" stroke-width="1.67568" stroke-miterlimit="10"/>
<path d="M158.792 35.4867C159.805 34.0697 161.657 33.1404 163.313 33.5111C163.744 33.6076 163.632 34.3084 163.214 34.3186C161.854 34.3592 160.687 34.6131 159.622 35.6085C158.557 36.6039 157.582 38.4627 158.586 39.8847C158.614 39.9202 158.553 39.971 158.52 39.9355C157.423 38.6658 157.896 36.7411 158.792 35.4867Z" fill="black" stroke="black" stroke-width="1.67568" stroke-miterlimit="10"/>
<path d="M164.981 21.453C165.849 21.085 166.789 20.919 167.73 20.9675C168.672 21.0159 169.59 21.2776 170.415 21.7326C171.748 22.5277 173.124 24.1015 172.79 25.7521C172.764 25.8345 172.715 25.9078 172.649 25.9633C172.583 26.0188 172.503 26.0541 172.417 26.0651C172.332 26.0761 172.245 26.0622 172.167 26.0252C172.089 25.9882 172.023 25.9295 171.978 25.8562C171.353 24.5128 171.079 23.3612 169.669 22.5661C168.024 21.6284 166.039 21.8423 164.389 22.6429C162.893 23.3823 161.646 24.5407 160.797 25.9769C159.903 27.4958 159.876 28.8832 159.832 30.5776C159.832 30.6708 159.689 30.7201 159.646 30.6269C157.852 26.9804 161.861 22.6539 164.981 21.453Z" fill="black" stroke="black" stroke-width="1.67568" stroke-miterlimit="10"/>
<path d="M155.489 12.5635C155.881 10.4678 156.457 8.41079 157.211 6.41645C157.83 4.81526 158.538 2.90696 159.783 1.728C161.976 -0.37219 164.718 1.54157 164.948 4.37656C165.118 6.48772 164.334 8.76341 163.884 10.8088C163.336 13.3093 162.596 16.561 162.201 19.0944C162.183 19.1619 162.143 19.2215 162.087 19.264C162.032 19.3066 161.964 19.3296 161.894 19.3296C161.824 19.3296 161.756 19.3066 161.7 19.264C161.645 19.2215 161.605 19.1619 161.587 19.0944C161.291 17.6851 161.74 15.4807 162.003 14.0824C162.354 12.218 162.755 10.3646 163.16 8.51116C163.566 6.65773 164.542 3.87208 163.034 2.39152C161.055 0.439385 159.415 3.60888 158.648 5.24846C155.714 11.6477 155.747 18.6009 154.985 25.5046C154.93 25.9598 154.299 25.9927 154.299 25.5046C154.267 21.1622 154.665 16.8272 155.489 12.5635Z" fill="black" stroke="black" stroke-width="1.67568" stroke-miterlimit="10"/>
<path d="M161.691 18.4095C161.716 18.361 161.759 18.324 161.811 18.3061C161.862 18.2882 161.919 18.2907 161.969 18.3131C162.018 18.3356 162.058 18.3763 162.078 18.4268C162.099 18.4774 162.1 18.534 162.08 18.585C162.716 20.5097 163.818 17.8776 163.928 17.4554C164.038 17.0331 166.319 10.6996 167.394 8.55007C168.567 6.19764 171.353 2.5566 174.182 3.9878C177.182 5.51223 175.734 9.82227 174.539 12.0979C172.384 16.2051 171.249 18.8153 169.85 21.9683C169.512 21.7859 169.137 21.6828 168.754 21.6667C169.975 18.5709 171.377 15.5497 172.954 12.6189C173.842 10.9738 175.147 8.35817 174.44 6.37862C173.733 4.39906 171.698 5.249 170.602 6.23604C169.786 7.00059 169.086 7.87987 168.523 8.84621C166.61 12.0102 166.05 15.9035 164.23 19.0675C163.797 19.8188 162.925 20.5755 162.069 20.071C161.933 19.9887 161.815 19.8798 161.722 19.7509C161.629 19.622 161.563 19.4756 161.527 19.3205C161.492 19.1655 161.488 19.0049 161.516 18.8484C161.545 18.6919 161.604 18.5426 161.691 18.4095Z" fill="black" stroke="black" stroke-width="1.67568" stroke-miterlimit="10"/>
</svg>
